<?xml version="1.0" encoding="utf-8"?>
<!-- Generator: Adobe Illustrator 24.0.1, SVG Export Plug-In . SVG Version: 6.00 Build 0)  -->
<svg version="1.1" id="Capa_1" xmlns="http://www.w3.org/2000/svg" xmlns:xlink="http://www.w3.org/1999/xlink" x="0px" y="0px"
	 viewBox="0 0 32 32" style="enable-background:new 0 0 32 32;" xml:space="preserve">
<style type="text/css">
	.st0{fill:#FFFFFF;}
	.st1{fill:#191919;}
</style>
<g id="XMLID_3_">
	<path id="XMLID_73_" class="st0" d="M16,31.96L16,31.96C7.19,31.96,0.04,24.81,0.04,16v0C0.04,7.19,7.19,0.04,16,0.04l0,0
		c8.81,0,15.96,7.15,15.96,15.96v0C31.96,24.81,24.81,31.96,16,31.96z"/>
	<g id="XMLID_65_">
		<path id="XMLID_70_" class="st1" d="M16,8.83c2.34,0,2.61,0.01,3.54,0.05c0.85,0.04,1.32,0.18,1.63,0.3
			c0.41,0.16,0.7,0.35,1.01,0.65c0.31,0.31,0.5,0.6,0.65,1.01c0.12,0.31,0.26,0.77,0.3,1.63c0.04,0.92,0.05,1.2,0.05,3.54
			s-0.01,2.61-0.05,3.54c-0.04,0.85-0.18,1.32-0.3,1.62c-0.16,0.41-0.35,0.7-0.65,1.01c-0.31,0.31-0.6,0.5-1.01,0.65
			c-0.31,0.12-0.77,0.26-1.63,0.3c-0.92,0.04-1.2,0.05-3.54,0.05c-2.34,0-2.61-0.01-3.54-0.05c-0.85-0.04-1.32-0.18-1.62-0.3
			c-0.41-0.16-0.7-0.35-1.01-0.65c-0.31-0.31-0.5-0.6-0.65-1.01c-0.12-0.31-0.26-0.77-0.3-1.62c-0.04-0.92-0.05-1.2-0.05-3.54
			s0.01-2.61,0.05-3.54c0.04-0.85,0.18-1.32,0.3-1.63c0.16-0.41,0.35-0.7,0.65-1.01c0.31-0.31,0.6-0.5,1.01-0.65
			c0.31-0.12,0.77-0.26,1.62-0.3C13.39,8.83,13.66,8.83,16,8.83 M16,7.25c-2.38,0-2.67,0.01-3.61,0.05
			c-0.93,0.04-1.57,0.19-2.12,0.41C9.69,7.93,9.2,8.23,8.72,8.72C8.23,9.2,7.93,9.69,7.71,10.27c-0.22,0.56-0.36,1.19-0.41,2.12
			C7.26,13.33,7.25,13.62,7.25,16c0,2.38,0.01,2.67,0.05,3.61c0.04,0.93,0.19,1.57,0.41,2.12c0.22,0.58,0.52,1.06,1.01,1.55
			c0.49,0.49,0.97,0.79,1.55,1.01c0.56,0.22,1.19,0.36,2.12,0.41c0.93,0.04,1.23,0.05,3.61,0.05c2.38,0,2.67-0.01,3.61-0.05
			c0.93-0.04,1.57-0.19,2.12-0.41c0.58-0.22,1.06-0.52,1.55-1.01c0.49-0.49,0.79-0.97,1.01-1.55c0.22-0.56,0.36-1.19,0.41-2.12
			c0.04-0.93,0.05-1.23,0.05-3.61c0-2.38-0.01-2.67-0.05-3.61c-0.04-0.93-0.19-1.57-0.41-2.12c-0.22-0.58-0.52-1.06-1.01-1.55
			c-0.49-0.49-0.97-0.79-1.55-1.01c-0.56-0.22-1.19-0.36-2.12-0.41C18.67,7.26,18.38,7.25,16,7.25"/>
		<path id="XMLID_67_" class="st1" d="M16,11.51c-2.48,0-4.49,2.01-4.49,4.49c0,2.48,2.01,4.49,4.49,4.49
			c2.48,0,4.49-2.01,4.49-4.49C20.49,13.52,18.48,11.51,16,11.51 M16,18.92c-1.61,0-2.92-1.31-2.92-2.92c0-1.61,1.31-2.92,2.92-2.92
			s2.92,1.31,2.92,2.92C18.92,17.61,17.61,18.92,16,18.92"/>
		<path id="XMLID_66_" class="st1" d="M21.72,11.33c0,0.58-0.47,1.05-1.05,1.05c-0.58,0-1.05-0.47-1.05-1.05
			c0-0.58,0.47-1.05,1.05-1.05C21.25,10.28,21.72,10.75,21.72,11.33"/>
	</g>
</g>
</svg>
