<?xml version="1.0" encoding="utf-8"?>
<!-- Generator: Adobe Illustrator 24.0.1, SVG Export Plug-In . SVG Version: 6.00 Build 0)  -->
<svg version="1.1" id="Capa_1" xmlns="http://www.w3.org/2000/svg" xmlns:xlink="http://www.w3.org/1999/xlink" x="0px" y="0px"
	 viewBox="0 0 32 32" style="enable-background:new 0 0 32 32;" xml:space="preserve">
<style type="text/css">
	.st0{fill:#FFFFFF;}
	.st1{fill:#191919;}
</style>
<g>
	<path id="XMLID_83_" class="st0" d="M16,31.96L16,31.96C7.19,31.96,0.04,24.81,0.04,16v0C0.04,7.19,7.19,0.04,16,0.04l0,0
		c8.81,0,15.96,7.15,15.96,15.96v0C31.96,24.81,24.81,31.96,16,31.96z"/>
	<g id="XMLID_75_">
		<path id="XMLID_76_" class="st1" d="M13.56,25.76h3.89v-9.73h2.71l0.29-3.26h-3c0,0,0-1.22,0-1.86c0-0.77,0.15-1.07,0.9-1.07
			c0.6,0,2.1,0,2.1,0V6.47c0,0-2.22,0-2.69,0c-2.89,0-4.19,1.27-4.19,3.71c0,2.12,0,2.6,0,2.6h-2.02v3.3h2.02V25.76z"/>
	</g>
</g>
</svg>
